<svg xmlns="http://www.w3.org/2000/svg" viewBox="0 0 10.15 12.86"><defs><style>.cls-1{fill:#1f2041;}</style></defs><title>N</title><g id="Слой_2" data-name="Слой 2"><g id="Слой_1-2" data-name="Слой 1"><path class="cls-1" d="M9.4,12.86a.69.69,0,0,1-.6-.3L1.51,3v9.13a.74.74,0,0,1-.23.54.72.72,0,0,1-.53.21.73.73,0,0,1-.52-.21A.74.74,0,0,1,0,12.11V.75A.71.71,0,0,1,.14.32.69.69,0,0,1,.53.05.63.63,0,0,1,1,0,.77.77,0,0,1,1.37.3L8.65,9.9V.75a.77.77,0,0,1,.2-.52A.78.78,0,0,1,9.4,0a.68.68,0,0,1,.52.23.71.71,0,0,1,.23.52V12.11a.77.77,0,0,1-.14.44.8.8,0,0,1-.37.28Z"/></g></g></svg>