<svg xmlns="http://www.w3.org/2000/svg" viewBox="0 0 12.93 12.91"><defs><style>.cls-1{fill:#1f2041;}</style></defs><title>O</title><g id="Слой_2" data-name="Слой 2"><g id="Слой_1-2" data-name="Слой 1"><path class="cls-1" d="M6.46,0A6.21,6.21,0,0,1,9,.51,6.54,6.54,0,0,1,11,1.89,6.07,6.07,0,0,1,12.42,4a6.18,6.18,0,0,1,.51,2.5,6.31,6.31,0,0,1-.66,2.87,6.65,6.65,0,0,1-1.8,2.2l0,0a7,7,0,0,1-1.84,1,6.18,6.18,0,0,1-2.13.35A6.25,6.25,0,0,1,4,12.41,6.62,6.62,0,0,1,1.89,11,6.56,6.56,0,0,1,.51,9,6.24,6.24,0,0,1,0,6.46,6.12,6.12,0,0,1,.6,3.75,6.4,6.4,0,0,1,2.22,1.59l.07-.07.06,0A6.18,6.18,0,0,1,4.23.4,6.2,6.2,0,0,1,6.46,0Zm0,11.37a5.18,5.18,0,0,0,1.26-.15,5.58,5.58,0,0,0,1.15-.48L2.73,3.27a4.73,4.73,0,0,0-.87,1.47,4.69,4.69,0,0,0-.32,1.72,4.76,4.76,0,0,0,.39,1.91A4.92,4.92,0,0,0,3,9.94,5.15,5.15,0,0,0,4.55,11,4.72,4.72,0,0,0,6.46,11.37Zm3.62-1.59A4.69,4.69,0,0,0,11,8.28a4.65,4.65,0,0,0,.36-1.82A4.73,4.73,0,0,0,11,4.55,4.93,4.93,0,0,0,9.92,3,4.69,4.69,0,0,0,8.36,1.93a4.68,4.68,0,0,0-1.9-.39,4.64,4.64,0,0,0-1.35.19,4.5,4.5,0,0,0-1.21.53Z"/></g></g></svg>