<svg xmlns="http://www.w3.org/2000/svg" viewBox="0 0 10.93 12.89"><defs><style>.cls-1{fill:#1f2041;}</style></defs><title>X</title><g id="Слой_2" data-name="Слой 2"><g id="Слой_1-2" data-name="Слой 1"><path class="cls-1" d="M5.26,7.26A.78.78,0,0,1,4.66,7L.16,1.2A.67.67,0,0,1,0,.66.7.7,0,0,1,.29.15.66.66,0,0,1,.83,0a.73.73,0,0,1,.51.28l3.92,5L9.09.38A.71.71,0,0,1,9.58.1a.76.76,0,0,1,.56.16.72.72,0,0,1,.28.5.75.75,0,0,1-.16.55L5.85,7A.74.74,0,0,1,5.26,7.26Zm4.91,5.63a1.08,1.08,0,0,1-.22,0,1.81,1.81,0,0,1-.34-.08,4.57,4.57,0,0,1-.42-.23,2.77,2.77,0,0,1-.42-.42L5.26,7.61,1.42,12.54a.71.71,0,0,1-.5.28.75.75,0,0,1-.55-.16.72.72,0,0,1-.28-.49.76.76,0,0,1,.16-.56L4.66,5.94a.7.7,0,0,1,.58-.28.77.77,0,0,1,.61.28L10,11.19a.39.39,0,0,0,.15.16l.11.05a.64.64,0,0,1,.49.21.75.75,0,0,1,.23.49.7.7,0,0,1-.18.55.73.73,0,0,1-.52.24Z"/></g></g></svg>